<svg width="1212" height="145" viewBox="0 0 1212 145" fill="none" xmlns="http://www.w3.org/2000/svg">
<path fill-rule="evenodd" clip-rule="evenodd" d="M426.74 0.275935C424.986 1.02171 424.168 3.04881 424.913 4.80358L483.603 142.897C484.349 144.652 486.376 145.47 488.131 144.724C489.886 143.978 490.704 141.951 489.958 140.196L431.268 2.10288C430.522 0.348108 428.495 -0.469843 426.74 0.275935Z" fill="#BBFFA8"/>
<path d="M680.869 1.29663C682.06 -0.192061 684.233 -0.433473 685.722 0.757568C687.21 1.94869 687.452 4.12136 686.261 5.61011L632.748 72.4998L686.261 139.39C687.452 140.879 687.21 143.052 685.722 144.243C684.233 145.434 682.06 145.193 680.869 143.704L625.631 74.657C625.625 74.6496 625.619 74.642 625.613 74.6345C625.586 74.6001 625.56 74.5653 625.534 74.53C625.524 74.5168 625.515 74.5033 625.506 74.49C625.483 74.4572 625.46 74.4239 625.438 74.3904C625.429 74.3764 625.42 74.3625 625.411 74.3484C625.388 74.3123 625.366 74.2758 625.345 74.239C625.335 74.2231 625.326 74.2072 625.317 74.1912C625.302 74.1637 625.287 74.136 625.272 74.1082C625.23 74.0272 625.19 73.9453 625.154 73.8621C625.147 73.8455 625.141 73.8289 625.134 73.8123C625.119 73.7773 625.106 73.7421 625.093 73.7068C625.087 73.6909 625.081 73.6749 625.075 73.6589C625.064 73.6265 625.052 73.594 625.042 73.5613C625.035 73.5388 625.027 73.5165 625.02 73.4939C624.978 73.3513 624.945 73.2068 624.921 73.0613C624.918 73.0456 624.915 73.0301 624.913 73.0144C624.908 72.9793 624.903 72.9442 624.898 72.9089C624.896 72.8878 624.894 72.8666 624.892 72.8455C624.883 72.7606 624.878 72.6756 624.876 72.5906C624.876 72.5772 624.875 72.5639 624.875 72.5505V72.45C624.875 72.4363 624.876 72.4226 624.876 72.4089C624.878 72.3239 624.883 72.2389 624.892 72.1541C624.894 72.1329 624.896 72.1117 624.898 72.0906C624.903 72.0554 624.908 72.0202 624.913 71.9851C624.915 71.9694 624.918 71.9539 624.921 71.9382C624.945 71.79 624.979 71.6429 625.023 71.4978C625.029 71.4809 625.034 71.4639 625.039 71.447C625.051 71.4104 625.063 71.374 625.076 71.3376C625.081 71.3226 625.087 71.3077 625.093 71.2927C625.106 71.2574 625.119 71.2222 625.134 71.1873C625.141 71.1707 625.147 71.154 625.154 71.1375C625.19 71.0543 625.23 70.9723 625.272 70.8914C625.287 70.8638 625.302 70.8365 625.317 70.8093C625.326 70.7937 625.335 70.778 625.344 70.7625C625.394 70.6753 625.449 70.5897 625.508 70.5066C625.517 70.4942 625.525 70.4818 625.534 70.4695C625.56 70.4343 625.586 70.3994 625.613 70.365C625.619 70.3577 625.625 70.3507 625.631 70.3435L680.869 1.29663Z" fill="#BBFFA8"/>
<path d="M701.583 1.29663C702.774 -0.192129 704.947 -0.433494 706.436 0.757568C707.924 1.94869 708.166 4.12132 706.975 5.61011L653.462 72.4998L706.975 139.39C708.166 140.879 707.924 143.052 706.436 144.243C704.947 145.434 702.774 145.193 701.583 143.704L646.393 74.7166C646.306 74.6131 646.227 74.5045 646.154 74.3933C646.14 74.372 646.127 74.3504 646.113 74.3289C646.099 74.3051 646.084 74.2816 646.069 74.2576C646.054 74.2321 646.04 74.2062 646.025 74.1804C646.012 74.1565 645.999 74.1324 645.986 74.1082C645.972 74.0813 645.959 74.0542 645.945 74.0271C645.934 74.0041 645.923 73.981 645.912 73.9578C645.9 73.9324 645.888 73.9072 645.877 73.8816C645.866 73.8554 645.855 73.829 645.844 73.8025C645.831 73.7707 645.819 73.7388 645.807 73.7068C645.801 73.6909 645.795 73.6749 645.789 73.6589C645.778 73.6265 645.766 73.594 645.756 73.5613C645.749 73.5388 645.741 73.5165 645.734 73.4939C645.692 73.3513 645.659 73.2068 645.635 73.0613C645.633 73.0482 645.63 73.0353 645.628 73.0222C645.606 72.8789 645.594 72.7348 645.59 72.5906C645.59 72.5772 645.589 72.5639 645.589 72.5505V72.45C645.589 72.4363 645.59 72.4226 645.59 72.4089C645.594 72.2648 645.606 72.1206 645.628 71.9773C645.63 71.9642 645.633 71.9513 645.635 71.9382C645.659 71.79 645.693 71.6429 645.737 71.4978C645.742 71.4809 645.748 71.4639 645.753 71.447C645.765 71.4104 645.777 71.374 645.79 71.3376C645.795 71.3226 645.801 71.3077 645.807 71.2927C645.819 71.2607 645.831 71.2288 645.844 71.197C645.855 71.1706 645.866 71.1442 645.877 71.1179C645.888 71.0923 645.9 71.0671 645.912 71.0417C645.923 71.0185 645.934 70.9954 645.945 70.9724C645.959 70.9453 645.972 70.9182 645.986 70.8914C645.999 70.8671 646.012 70.843 646.025 70.8191C646.039 70.7946 646.053 70.7701 646.067 70.7458C646.086 70.7147 646.105 70.6837 646.124 70.6531C646.132 70.6413 646.139 70.6296 646.147 70.6179C646.222 70.5026 646.303 70.39 646.393 70.283L701.583 1.29663Z" fill="#FF00EE"/>
<path fill-rule="evenodd" clip-rule="evenodd" d="M827.212 0.275935C825.457 1.02171 824.639 3.04881 825.385 4.80358L884.074 142.897C884.82 144.652 886.847 145.47 888.602 144.724C890.357 143.978 891.175 141.951 890.429 140.196L831.739 2.10288C830.994 0.348108 828.966 -0.469843 827.212 0.275935Z" fill="#009DFF"/>
<path fill-rule="evenodd" clip-rule="evenodd" d="M847.926 0.275935C846.171 1.02171 845.353 3.04881 846.099 4.80358L904.788 142.897C905.534 144.652 907.561 145.47 909.316 144.724C911.071 143.978 911.889 141.951 911.143 140.196L852.453 2.10288C851.708 0.348108 849.68 -0.469843 847.926 0.275935Z" fill="#BBFFA8"/>
<path fill-rule="evenodd" clip-rule="evenodd" d="M868.64 0.275935C866.885 1.02171 866.067 3.04881 866.813 4.80358L925.503 142.897C926.248 144.652 928.275 145.47 930.03 144.724C931.785 143.978 932.603 141.951 931.857 140.196L873.167 2.10288C872.422 0.348108 870.394 -0.469843 868.64 0.275935Z" fill="#FF00EE"/>
<path fill-rule="evenodd" clip-rule="evenodd" d="M1166.89 0.000732422C1164.98 0.000732422 1163.44 1.5464 1163.44 3.45307V141.547C1163.44 143.453 1164.98 144.999 1166.89 144.999C1168.8 144.999 1170.34 143.453 1170.34 141.547V3.45307C1170.34 1.5464 1168.8 0.000732422 1166.89 0.000732422ZM977.013 0.000732422C975.106 0.000732422 973.56 1.5464 973.56 3.45307V141.547C973.56 143.453 975.106 144.999 977.013 144.999C978.919 144.999 980.465 143.453 980.465 141.547V3.45307C980.465 1.5464 978.919 0.000732422 977.013 0.000732422ZM559.28 0.000732422C557.373 0.000732422 555.827 1.5464 555.827 3.45307V141.547C555.827 143.453 557.373 144.999 559.28 144.999C561.186 144.999 562.732 143.453 562.732 141.547V3.45307C562.732 1.5464 561.186 0.000732422 559.28 0.000732422ZM234.76 0.000732422C232.853 0.000732422 231.308 1.5464 231.308 3.45307V141.547C231.308 143.453 232.853 144.999 234.76 144.999C236.667 144.999 238.212 143.453 238.212 141.547V3.45307C238.212 1.5464 236.667 0.000732422 234.76 0.000732422Z" fill="#009DFF"/>
<path fill-rule="evenodd" clip-rule="evenodd" d="M63.4933 0.275935C65.2481 1.02171 66.0661 3.04881 65.3203 4.80358L6.63052 142.897C5.88474 144.652 3.85765 145.47 2.10288 144.724C0.348108 143.978 -0.469843 141.951 0.275935 140.196L58.9657 2.10288C59.7115 0.348108 61.7386 -0.469843 63.4933 0.275935Z" fill="#009DFF"/>
<path fill-rule="evenodd" clip-rule="evenodd" d="M81.5066 0.275935C79.7518 1.02171 78.9339 3.04881 79.6796 4.80358L138.369 142.897C139.115 144.652 141.142 145.47 142.897 144.724C144.652 143.978 145.47 141.951 144.724 140.196L86.0342 2.10288C85.2884 0.348108 83.2613 -0.469843 81.5066 0.275935Z" fill="#009DFF"/>
<path fill-rule="evenodd" clip-rule="evenodd" d="M406.026 0.275935C404.272 1.02171 403.454 3.04881 404.199 4.80358L462.889 142.897C463.635 144.652 465.662 145.47 467.417 144.724C469.172 143.978 469.99 141.951 469.244 140.196L410.554 2.10288C409.808 0.348108 407.781 -0.469843 406.026 0.275935Z" fill="#009DFF"/>
<path d="M660.155 1.29663C661.346 -0.19213 663.519 -0.433494 665.008 0.757568C666.496 1.94869 666.738 4.12132 665.547 5.61011L612.034 72.4998L665.547 139.39C666.738 140.879 666.496 143.052 665.008 144.243C663.519 145.434 661.346 145.193 660.155 143.704L604.965 74.7166C604.878 74.6131 604.799 74.5045 604.726 74.3933C604.712 74.372 604.699 74.3504 604.685 74.3289C604.67 74.3051 604.656 74.2816 604.641 74.2576C604.626 74.2321 604.612 74.2062 604.597 74.1804C604.584 74.1565 604.571 74.1324 604.558 74.1082C604.544 74.0813 604.531 74.0542 604.517 74.0271C604.506 74.0041 604.495 73.981 604.484 73.9578C604.472 73.9324 604.46 73.9072 604.449 73.8816C604.438 73.8554 604.427 73.829 604.416 73.8025C604.403 73.7707 604.391 73.7388 604.379 73.7068C604.373 73.6909 604.367 73.6749 604.361 73.6589C604.35 73.6265 604.338 73.594 604.328 73.5613C604.321 73.5388 604.313 73.5165 604.306 73.4939C604.264 73.3513 604.231 73.2068 604.207 73.0613C604.205 73.0482 604.202 73.0353 604.2 73.0222C604.178 72.8789 604.166 72.7348 604.162 72.5906C604.162 72.5772 604.161 72.5639 604.161 72.5505V72.45C604.161 72.4363 604.161 72.4226 604.162 72.4089C604.166 72.2648 604.178 72.1206 604.2 71.9773C604.202 71.9642 604.205 71.9513 604.207 71.9382C604.231 71.79 604.265 71.6429 604.309 71.4978C604.314 71.4809 604.32 71.4639 604.325 71.447C604.337 71.4104 604.349 71.374 604.362 71.3376C604.367 71.3226 604.373 71.3077 604.379 71.2927C604.391 71.2607 604.403 71.2288 604.416 71.197C604.427 71.1706 604.438 71.1442 604.449 71.1179C604.46 71.0923 604.472 71.0671 604.484 71.0417C604.495 71.0185 604.506 70.9954 604.517 70.9724C604.531 70.9453 604.544 70.9182 604.558 70.8914C604.571 70.8671 604.584 70.843 604.597 70.8191C604.611 70.7946 604.625 70.7701 604.639 70.7458C604.658 70.7147 604.677 70.6837 604.696 70.6531C604.703 70.6413 604.711 70.6296 604.719 70.6179C604.794 70.5026 604.875 70.39 604.965 70.283L660.155 1.29663Z" fill="#009DFF"/>
<path fill-rule="evenodd" clip-rule="evenodd" d="M391.465 0.275935C393.22 1.02171 394.038 3.04881 393.292 4.80358L334.603 142.897C333.857 144.652 331.83 145.47 330.075 144.724C328.32 143.978 327.502 141.951 328.248 140.196L386.938 2.10288C387.684 0.348108 389.711 -0.469843 391.465 0.275935Z" fill="#009DFF"/>
<path fill-rule="evenodd" clip-rule="evenodd" d="M812.651 0.275935C814.406 1.02171 815.224 3.04881 814.478 4.80358L755.788 142.897C755.042 144.652 753.015 145.47 751.26 144.724C749.506 143.978 748.688 141.951 749.433 140.196L808.123 2.10288C808.869 0.348108 810.896 -0.469843 812.651 0.275935Z" fill="#009DFF"/>
<path fill-rule="evenodd" clip-rule="evenodd" d="M84.2074 0.275935C85.9622 1.02171 86.7801 3.04881 86.0343 4.80358L27.3446 142.897C26.5988 144.652 24.5717 145.47 22.8169 144.724C21.0622 143.978 20.2442 141.951 20.99 140.196L79.6797 2.10288C80.4255 0.348108 82.4526 -0.469843 84.2074 0.275935Z" fill="#BBFFA8"/>
<path fill-rule="evenodd" clip-rule="evenodd" d="M102.221 0.275935C100.466 1.02171 99.6479 3.04881 100.394 4.80358L159.083 142.897C159.829 144.652 161.856 145.47 163.611 144.724C165.366 143.978 166.184 141.951 165.438 140.196L106.748 2.10288C106.002 0.348108 103.975 -0.469843 102.221 0.275935Z" fill="#BBFFA8"/>
<path fill-rule="evenodd" clip-rule="evenodd" d="M1187.61 0.000732422C1185.7 0.000732422 1184.15 1.5464 1184.15 3.45307V141.547C1184.15 143.453 1185.7 144.999 1187.61 144.999C1189.51 144.999 1191.06 143.453 1191.06 141.547V3.45307C1191.06 1.5464 1189.51 0.000732422 1187.61 0.000732422ZM997.727 0.000732422C995.82 0.000732422 994.274 1.5464 994.274 3.45307V141.547C994.274 143.453 995.82 144.999 997.727 144.999C999.633 144.999 1001.18 143.453 1001.18 141.547V3.45307C1001.18 1.5464 999.633 0.000732422 997.727 0.000732422ZM579.994 0.000732422C578.087 0.000732422 576.541 1.5464 576.541 3.45307V141.547C576.541 143.453 578.087 144.999 579.994 144.999C581.9 144.999 583.446 143.453 583.446 141.547V3.45307C583.446 1.5464 581.9 0.000732422 579.994 0.000732422ZM255.474 0.000732422C253.567 0.000732422 252.022 1.5464 252.022 3.45307V141.547C252.022 143.453 253.567 144.999 255.474 144.999C257.381 144.999 258.926 143.453 258.926 141.547V3.45307C258.926 1.5464 257.381 0.000732422 255.474 0.000732422Z" fill="#BBFFA8"/>
<path fill-rule="evenodd" clip-rule="evenodd" d="M412.18 0.275935C413.934 1.02171 414.752 3.04881 414.006 4.80358L355.317 142.897C354.571 144.652 352.544 145.47 350.789 144.724C349.034 143.978 348.216 141.951 348.962 140.196L407.652 2.10288C408.398 0.348108 410.425 -0.469843 412.18 0.275935Z" fill="#BBFFA8"/>
<path fill-rule="evenodd" clip-rule="evenodd" d="M833.365 0.275935C835.12 1.02171 835.938 3.04881 835.192 4.80358L776.502 142.897C775.756 144.652 773.729 145.47 771.974 144.724C770.22 143.978 769.402 141.951 770.147 140.196L828.837 2.10288C829.583 0.348108 831.61 -0.469843 833.365 0.275935Z" fill="#BBFFA8"/>
<path fill-rule="evenodd" clip-rule="evenodd" d="M104.921 0.275935C106.676 1.02171 107.494 3.04881 106.748 4.80358L48.0586 142.897C47.3128 144.652 45.2857 145.47 43.5309 144.724C41.7761 143.978 40.9582 141.951 41.704 140.196L100.394 2.10288C101.14 0.348108 103.167 -0.469843 104.921 0.275935Z" fill="#FF00EE"/>
<path fill-rule="evenodd" clip-rule="evenodd" d="M122.935 0.275935C121.18 1.02171 120.362 3.04881 121.108 4.80358L179.797 142.897C180.543 144.652 182.57 145.47 184.325 144.724C186.08 143.978 186.898 141.951 186.152 140.196L127.462 2.10288C126.717 0.348108 124.689 -0.469843 122.935 0.275935Z" fill="#FF00EE"/>
<path fill-rule="evenodd" clip-rule="evenodd" d="M447.454 0.275935C445.7 1.02171 444.882 3.04881 445.628 4.80358L504.317 142.897C505.063 144.652 507.09 145.47 508.845 144.724C510.6 143.978 511.418 141.951 510.672 140.196L451.982 2.10288C451.236 0.348108 449.209 -0.469843 447.454 0.275935Z" fill="#FF00EE"/>
<path fill-rule="evenodd" clip-rule="evenodd" d="M1208.32 0.000732422C1206.41 0.000732422 1204.87 1.5464 1204.87 3.45307V141.547C1204.87 143.453 1206.41 144.999 1208.32 144.999C1210.23 144.999 1211.77 143.453 1211.77 141.547V3.45307C1211.77 1.5464 1210.23 0.000732422 1208.32 0.000732422ZM1018.44 0.000732422C1016.53 0.000732422 1014.99 1.5464 1014.99 3.45307V141.547C1014.99 143.453 1016.53 144.999 1018.44 144.999C1020.35 144.999 1021.89 143.453 1021.89 141.547V3.45307C1021.89 1.5464 1020.35 0.000732422 1018.44 0.000732422ZM600.708 0.000732422C598.801 0.000732422 597.255 1.5464 597.255 3.45307V141.547C597.255 143.453 598.801 144.999 600.708 144.999C602.614 144.999 604.16 143.453 604.16 141.547V3.45307C604.16 1.5464 602.614 0.000732422 600.708 0.000732422ZM276.188 0.000732422C274.281 0.000732422 272.736 1.5464 272.736 3.45307V141.547C272.736 143.453 274.281 144.999 276.188 144.999C278.095 144.999 279.64 143.453 279.64 141.547V3.45307C279.64 1.5464 278.095 0.000732422 276.188 0.000732422Z" fill="#FF00EE"/>
<path fill-rule="evenodd" clip-rule="evenodd" d="M432.894 0.275935C434.648 1.02171 435.466 3.04881 434.72 4.80358L376.031 142.897C375.285 144.652 373.258 145.47 371.503 144.724C369.748 143.978 368.93 141.951 369.676 140.196L428.366 2.10288C429.112 0.348108 431.139 -0.469843 432.894 0.275935Z" fill="#FF00EE"/>
<path fill-rule="evenodd" clip-rule="evenodd" d="M854.079 0.275935C855.834 1.02171 856.652 3.04881 855.906 4.80358L797.216 142.897C796.47 144.652 794.443 145.47 792.688 144.724C790.934 143.978 790.116 141.951 790.861 140.196L849.551 2.10288C850.297 0.348108 852.324 -0.469843 854.079 0.275935Z" fill="#FF00EE"/>
<path d="M1077.89 1.29663C1079.08 -0.192076 1081.25 -0.433478 1082.74 0.757568C1084.23 1.94869 1084.47 4.12135 1083.28 5.61011L1029.77 72.4998L1083.28 139.39C1084.47 140.879 1084.23 143.052 1082.74 144.243C1081.25 145.434 1079.08 145.193 1077.89 143.704L1022.7 74.7166C1022.65 74.6554 1022.6 74.592 1022.55 74.5281C1022.54 74.5154 1022.53 74.5027 1022.52 74.49C1022.5 74.4572 1022.48 74.4239 1022.46 74.3904C1022.45 74.3764 1022.44 74.3625 1022.43 74.3484C1022.41 74.3123 1022.39 74.2758 1022.36 74.239C1022.35 74.2231 1022.35 74.2072 1022.34 74.1912C1022.32 74.1637 1022.31 74.136 1022.29 74.1082C1022.28 74.0813 1022.26 74.0542 1022.25 74.0271C1022.24 74.0041 1022.23 73.981 1022.22 73.9578C1022.21 73.9324 1022.19 73.9072 1022.18 73.8816C1022.17 73.8554 1022.16 73.829 1022.15 73.8025C1022.14 73.7707 1022.12 73.7388 1022.11 73.7068C1022.11 73.6909 1022.1 73.6749 1022.09 73.6589C1022.08 73.6265 1022.07 73.594 1022.06 73.5613C1022.05 73.5388 1022.05 73.5165 1022.04 73.4939C1022 73.3513 1021.96 73.2068 1021.94 73.0613C1021.94 73.0456 1021.93 73.0301 1021.93 73.0144C1021.93 72.9793 1021.92 72.9442 1021.92 72.9089C1021.91 72.8878 1021.91 72.8666 1021.91 72.8455C1021.9 72.7606 1021.9 72.6756 1021.89 72.5906C1021.89 72.5772 1021.89 72.5639 1021.89 72.5505V72.45C1021.89 72.4363 1021.89 72.4226 1021.89 72.4089C1021.9 72.3239 1021.9 72.2389 1021.91 72.1541C1021.91 72.1329 1021.91 72.1117 1021.92 72.0906C1021.92 72.0554 1021.93 72.0202 1021.93 71.9851C1021.93 71.9694 1021.94 71.9539 1021.94 71.9382C1021.96 71.79 1022 71.6429 1022.04 71.4978C1022.05 71.4809 1022.05 71.4639 1022.06 71.447C1022.07 71.4104 1022.08 71.374 1022.1 71.3376C1022.1 71.3226 1022.11 71.3077 1022.11 71.2927C1022.12 71.2607 1022.14 71.2288 1022.15 71.197C1022.16 71.1705 1022.17 71.1442 1022.18 71.1179C1022.19 71.0923 1022.21 71.0671 1022.22 71.0417C1022.23 71.0185 1022.24 70.9954 1022.25 70.9724C1022.26 70.9453 1022.28 70.9182 1022.29 70.8914C1022.31 70.8638 1022.32 70.8365 1022.34 70.8093C1022.35 70.7937 1022.35 70.778 1022.36 70.7625C1022.41 70.6753 1022.47 70.5897 1022.53 70.5066C1022.54 70.4948 1022.54 70.4831 1022.55 70.4714C1022.6 70.4075 1022.65 70.3441 1022.7 70.283L1077.89 1.29663Z" fill="#009DFF"/>
<path d="M1098.6 1.29663C1099.79 -0.192107 1101.97 -0.433487 1103.45 0.757568C1104.94 1.94869 1105.18 4.12133 1103.99 5.61011L1050.48 72.4998L1103.99 139.39C1105.18 140.879 1104.94 143.052 1103.45 144.243C1101.97 145.434 1099.79 145.193 1098.6 143.704L1043.41 74.7166C1043.32 74.6131 1043.25 74.5045 1043.17 74.3933C1043.16 74.372 1043.15 74.3504 1043.13 74.3289C1043.12 74.3051 1043.1 74.2816 1043.09 74.2576C1043.07 74.2321 1043.06 74.2062 1043.04 74.1804C1043.03 74.1565 1043.02 74.1324 1043.01 74.1082C1042.99 74.0813 1042.98 74.0542 1042.96 74.0271C1042.95 74.0041 1042.94 73.981 1042.93 73.9578C1042.92 73.9324 1042.91 73.9072 1042.9 73.8816C1042.88 73.8554 1042.87 73.829 1042.86 73.8025C1042.85 73.7707 1042.84 73.7388 1042.83 73.7068C1042.82 73.6909 1042.81 73.6749 1042.81 73.6589C1042.8 73.6265 1042.79 73.594 1042.77 73.5613C1042.77 73.5388 1042.76 73.5165 1042.75 73.4939C1042.71 73.3513 1042.68 73.2068 1042.65 73.0613C1042.65 73.0482 1042.65 73.0353 1042.65 73.0222C1042.63 72.8789 1042.61 72.7348 1042.61 72.5906C1042.61 72.5772 1042.61 72.5639 1042.61 72.5505V72.45C1042.61 72.4363 1042.61 72.4226 1042.61 72.4089C1042.61 72.2648 1042.63 72.1206 1042.65 71.9773C1042.65 71.9642 1042.65 71.9513 1042.65 71.9382C1042.68 71.79 1042.71 71.6429 1042.76 71.4978C1042.76 71.4809 1042.77 71.4639 1042.77 71.447C1042.78 71.4104 1042.8 71.374 1042.81 71.3376C1042.81 71.3226 1042.82 71.3077 1042.83 71.2927C1042.84 71.2607 1042.85 71.2288 1042.86 71.197C1042.87 71.1706 1042.88 71.1442 1042.9 71.1179C1042.91 71.0923 1042.92 71.0671 1042.93 71.0417C1042.94 71.0185 1042.95 70.9954 1042.96 70.9724C1042.98 70.9453 1042.99 70.9182 1043.01 70.8914C1043.02 70.8671 1043.03 70.843 1043.04 70.8191C1043.06 70.7946 1043.07 70.7701 1043.09 70.7458C1043.1 70.7147 1043.12 70.6837 1043.14 70.6531C1043.15 70.6413 1043.16 70.6296 1043.17 70.6179C1043.24 70.5026 1043.32 70.39 1043.41 70.283L1098.6 1.29663Z" fill="#BBFFA8"/>
<path d="M1119.32 1.29663C1120.51 -0.192064 1122.68 -0.433474 1124.17 0.757568C1125.66 1.94869 1125.9 4.12136 1124.71 5.61011L1071.19 72.4998L1124.71 139.39C1125.9 140.879 1125.66 143.052 1124.17 144.243C1122.68 145.434 1120.51 145.193 1119.32 143.704L1064.08 74.657C1064.07 74.6496 1064.07 74.642 1064.06 74.6345C1064.03 74.6001 1064.01 74.5653 1063.98 74.53C1063.97 74.5168 1063.96 74.5033 1063.95 74.49C1063.93 74.4572 1063.91 74.4239 1063.89 74.3904C1063.88 74.3764 1063.87 74.3625 1063.86 74.3484C1063.84 74.3123 1063.81 74.2758 1063.79 74.239C1063.78 74.2231 1063.77 74.2072 1063.76 74.1912C1063.75 74.1637 1063.73 74.136 1063.72 74.1082C1063.68 74.0272 1063.64 73.9453 1063.6 73.8621C1063.59 73.8455 1063.59 73.8289 1063.58 73.8123C1063.57 73.7773 1063.55 73.7421 1063.54 73.7068C1063.53 73.6909 1063.53 73.6749 1063.52 73.6589C1063.51 73.6265 1063.5 73.594 1063.49 73.5613C1063.48 73.5388 1063.47 73.5165 1063.47 73.4939C1063.42 73.3513 1063.39 73.2068 1063.37 73.0613C1063.37 73.0456 1063.36 73.0301 1063.36 73.0144C1063.35 72.9793 1063.35 72.9442 1063.35 72.9089C1063.34 72.8878 1063.34 72.8666 1063.34 72.8455C1063.33 72.7606 1063.33 72.6756 1063.32 72.5906C1063.32 72.5772 1063.32 72.5639 1063.32 72.5505V72.45C1063.32 72.4363 1063.32 72.4226 1063.32 72.4089C1063.33 72.3239 1063.33 72.2389 1063.34 72.1541C1063.34 72.1329 1063.34 72.1117 1063.35 72.0906C1063.35 72.0554 1063.35 72.0202 1063.36 71.9851C1063.36 71.9694 1063.37 71.9539 1063.37 71.9382C1063.39 71.79 1063.43 71.6429 1063.47 71.4978C1063.48 71.4809 1063.48 71.4639 1063.49 71.447C1063.5 71.4104 1063.51 71.374 1063.52 71.3376C1063.53 71.3226 1063.53 71.3077 1063.54 71.2927C1063.55 71.2574 1063.57 71.2222 1063.58 71.1873C1063.59 71.1707 1063.59 71.154 1063.6 71.1375C1063.64 71.0543 1063.68 70.9723 1063.72 70.8914C1063.73 70.8638 1063.75 70.8365 1063.76 70.8093C1063.77 70.7937 1063.78 70.778 1063.79 70.7625C1063.84 70.6753 1063.9 70.5897 1063.95 70.5066C1063.96 70.4942 1063.97 70.4818 1063.98 70.4695C1064.01 70.4343 1064.03 70.3994 1064.06 70.365C1064.07 70.3577 1064.07 70.3507 1064.08 70.3435L1119.32 1.29663Z" fill="#FF00EE"/>
</svg>
