<svg width="32" height="32" viewBox="0 0 48 48" fill="none" xmlns="http://www.w3.org/2000/svg">
<path fill-rule="evenodd" clip-rule="evenodd" d="M23.6162 0C26.8592 1.60602e-05 29.9096 0.639938 32.7686 1.91992C35.6694 3.15724 38.2079 4.88591 40.3838 7.10449C42.6028 9.28053 44.3314 11.7976 45.5684 14.6562C46.8053 17.5148 47.4238 20.5442 47.4238 23.7441C47.4238 27.0293 46.8053 30.1013 45.5684 32.96C44.3314 35.8185 42.6028 38.3357 40.3838 40.5117C38.2079 42.6876 35.6693 44.3945 32.7686 45.6318C29.9096 46.8264 26.8592 47.4238 23.6162 47.4238C20.3732 47.4238 17.3229 46.8264 14.4639 45.6318C11.605 44.3945 9.08803 42.7094 6.91211 40.5762C4.73611 38.4428 3.02899 35.9465 1.79199 33.0879C0.597067 30.1866 0 27.072 0 23.7441C3.79551e-06 20.5442 0.597023 17.5148 1.79199 14.6562C3.02896 11.7976 4.73619 9.2805 6.91211 7.10449C9.08808 4.88586 11.6049 3.15725 14.4639 1.91992C17.3229 0.639922 20.3732 0 23.6162 0ZM23.6631 40.9121L8.93066 15.3955C7.58533 17.9229 6.91211 20.7273 6.91211 23.8086C6.91218 26.9657 7.65941 29.8457 9.15234 32.4482C10.6453 35.0508 12.6725 37.1203 15.2324 38.6562C17.7922 40.1921 20.6509 40.9599 23.8076 40.96C26.9225 40.96 29.7389 40.1922 32.2559 38.6562C34.7729 37.1202 36.7795 35.0508 38.2725 32.4482C39.7654 29.8456 40.5117 26.9441 40.5117 23.7441C40.5117 20.6831 39.8078 17.8962 38.4023 15.3818L23.6631 40.9121ZM23.6797 6.46387C20.523 6.46393 17.6643 7.25354 15.1045 8.83203C12.7294 10.2814 10.8091 12.2249 9.3457 14.6621H37.9873C36.5173 12.1952 34.5645 10.2305 32.1279 8.76855C29.6109 7.23251 26.7947 6.46387 23.6797 6.46387Z" fill="black"/>
</svg> 